<?xml version="1.0" encoding="utf-8"?>
<!-- Generator: Adobe Illustrator 16.0.0, SVG Export Plug-In . SVG Version: 6.00 Build 0)  -->
<!DOCTYPE svg PUBLIC "-//W3C//DTD SVG 1.1//EN" "http://www.w3.org/Graphics/SVG/1.1/DTD/svg11.dtd">
<svg version="1.1" id="Layer_1" xmlns="http://www.w3.org/2000/svg" xmlns:xlink="http://www.w3.org/1999/xlink" x="0px" y="0px"
	 width="50px" height="50px" viewBox="0 0 50 50" enable-background="new 0 0 50 50" xml:space="preserve">
<g>
	<path fill="#FFFFFF" d="M25,8.242c1.592,0,3.125,0.236,4.584,0.651L25,0l-4.582,8.893C21.876,8.479,23.409,8.242,25,8.242z"/>
	<path fill="#FFFFFF" d="M50,25l-8.893-4.583c0.414,1.458,0.65,2.992,0.65,4.583c0,1.59-0.236,3.121-0.649,4.578L50,25z"/>
	<path fill="#FFFFFF" d="M39.631,16.84l3.045-9.519l-9.52,3.046C35.869,11.883,38.115,14.128,39.631,16.84z"/>
	<path fill="#FFFFFF" d="M16.844,10.367L7.322,7.322l3.047,9.519C11.885,14.128,14.131,11.883,16.844,10.367z"/>
	<path fill="#FFFFFF" d="M8.242,25c0-1.591,0.236-3.124,0.65-4.583L0,25l8.891,4.578C8.478,28.121,8.242,26.59,8.242,25z"/>
	<path fill="#FFFFFF" d="M33.158,39.631l9.518,3.045l-3.044-9.518C38.116,35.87,35.871,38.115,33.158,39.631z"/>
	<path fill="#FFFFFF" d="M25,41.757c-1.59,0-3.123-0.236-4.581-0.649L25,50l4.583-8.894C28.125,41.521,26.591,41.757,25,41.757z"/>
	<path fill="#FFFFFF" d="M10.368,33.158l-3.046,9.518l9.52-3.045C14.129,38.115,11.884,35.87,10.368,33.158z"/>
</g>
<circle fill="#FFFFFF" cx="25" cy="25" r="12.925"/>
</svg>
